<svg width="205" height="36" viewBox="0 0 205 36" fill="none" xmlns="http://www.w3.org/2000/svg">
<path d="M194.637 28.7296C192.13 28.7296 189.963 28.2866 188.135 27.4007C186.333 26.4886 184.949 25.2248 183.983 23.6091C183.017 21.9935 182.534 20.1433 182.534 18.0586C182.534 15.9739 182.991 14.1238 183.905 12.5081C184.845 10.8925 186.163 9.64168 187.861 8.75569C189.584 7.86969 191.556 7.4267 193.775 7.4267C197.196 7.4267 199.846 8.4039 201.726 10.3583C203.606 12.3127 204.546 14.9967 204.546 18.4104L187.822 20.7166C188.735 23.3746 191.112 24.7036 194.95 24.7036C197.483 24.7036 200.186 24.1824 203.058 23.1401V27.2052C201.726 27.7264 200.395 28.1042 199.063 28.3388C197.757 28.5993 196.282 28.7296 194.637 28.7296ZM199.768 15.6352C199.585 14.3844 199.011 13.3811 198.044 12.6254C197.078 11.8436 195.707 11.4528 193.932 11.4528C191.869 11.4528 190.289 11.9609 189.192 12.9772C188.096 13.9935 187.495 15.4528 187.391 17.355L199.768 15.6352Z" fill="#66A6F2"/>
<path d="M165.214 28.7296C163.726 28.7296 162.668 28.2085 162.042 27.1661C161.415 26.1238 161.102 24.7818 161.102 23.1401C161.102 22.3062 161.154 21.4072 161.258 20.443C161.389 19.4788 161.532 18.5668 161.689 17.7068C162.002 15.7264 162.159 14.3453 162.159 13.5635C162.159 12.7036 162.081 12.1303 161.924 11.8436C161.767 11.5309 161.48 11.3746 161.062 11.3746C160.41 11.3746 159.848 11.8306 159.378 12.7427C158.934 13.6547 158.712 14.7752 158.712 16.1042C158.712 18.3974 159.3 20.9251 160.475 23.6873L156.284 24.9772C155.631 23.57 155.122 22.0847 154.756 20.5212C154.417 18.9576 154.247 17.5114 154.247 16.1824C154.247 13.5505 154.9 11.4397 156.205 9.85015C157.511 8.23451 159.313 7.4267 161.611 7.4267C163.282 7.4267 164.574 7.88272 165.488 8.79478C166.428 9.70683 166.898 11.127 166.898 13.0554C166.898 13.7589 166.833 14.6189 166.703 15.6352C166.598 16.6515 166.468 17.6417 166.311 18.6059C165.998 20.7427 165.841 22.1238 165.841 22.7492C165.841 23.5309 165.893 24.0651 165.998 24.3518C166.128 24.6384 166.376 24.7818 166.742 24.7818C167.551 24.7818 168.583 23.9218 169.836 22.2019C171.089 20.456 172.265 18.2801 173.361 15.6743C174.484 13.0423 175.241 10.4756 175.633 7.97393H180.372C179.928 9.66774 179.563 11.6612 179.276 13.9544C179.015 16.2215 178.884 18.1889 178.884 19.8567C178.884 21.4723 178.962 23.0098 179.119 24.469C179.276 25.9283 179.485 27.1661 179.746 28.1824H175.006C174.458 25.6547 174.171 23.3485 174.145 21.2638C172.917 23.6091 171.546 25.4463 170.032 26.7752C168.517 28.0782 166.911 28.7296 165.214 28.7296Z" fill="#66A6F2"/>
<path d="M145.251 28.1824L145.799 22.3192H145.721C145.12 24.3257 144.023 25.9023 142.43 27.0489C140.838 28.1694 138.944 28.7296 136.751 28.7296C134.819 28.7296 133.095 28.2736 131.581 27.3616C130.066 26.4495 128.878 25.1857 128.016 23.57C127.181 21.9283 126.763 20.0912 126.763 18.0586C126.763 16 127.181 14.1629 128.016 12.5472C128.878 10.9316 130.066 9.68077 131.581 8.79478C133.095 7.88272 134.819 7.4267 136.751 7.4267C138.944 7.4267 140.838 7.99999 142.43 9.14657C144.023 10.2671 145.12 11.8306 145.721 13.8371H145.799L145.251 7.97393H149.99V36H145.251V28.1824ZM138.435 24.6254C140.576 24.6254 142.248 24.0521 143.449 22.9055C144.65 21.759 145.251 20.1563 145.251 18.0977C145.251 16.0391 144.65 14.4365 143.449 13.2899C142.248 12.1173 140.576 11.5309 138.435 11.5309C136.294 11.5309 134.623 12.1173 133.422 13.2899C132.221 14.4365 131.62 16.0261 131.62 18.0586C131.62 20.1173 132.221 21.7329 133.422 22.9055C134.623 24.0521 136.294 24.6254 138.435 24.6254Z" fill="#66A6F2"/>
<path d="M117.706 7.97395H122.445V28.1824H117.706V7.97395ZM120.056 5.43323C119.194 5.43323 118.476 5.17264 117.901 4.65147C117.327 4.13029 117.04 3.47883 117.04 2.69707C117.04 1.94137 117.327 1.30293 117.901 0.781759C118.476 0.260586 119.194 0 120.056 0C120.917 0 121.635 0.260586 122.21 0.781759C122.81 1.30293 123.111 1.94137 123.111 2.69707C123.111 3.47883 122.81 4.13029 122.21 4.65147C121.635 5.17264 120.917 5.43323 120.056 5.43323Z" fill="#66A6F2"/>
<path d="M107.659 28.7296C104.865 28.7296 102.815 28.0521 101.51 26.6971C100.23 25.342 99.5905 23.1791 99.5905 20.2085V12.1172H96.457V7.97392H99.5905V3.7915H104.33V7.97392H113.143V12.1172H104.33V19.7003C104.33 21.4462 104.643 22.684 105.27 23.4137C105.923 24.1433 107.006 24.5081 108.521 24.5081C109.905 24.5081 111.576 24.2085 113.534 23.6091V27.8306C111.602 28.43 109.644 28.7296 107.659 28.7296Z" fill="#66A6F2"/>
<path d="M74.4569 28.7296C72.7857 28.7296 71.5193 28.2345 70.6576 27.2443C69.822 26.2541 69.4042 24.912 69.4042 23.2182C69.4042 21.7068 69.7697 20.1042 70.5009 18.4104C71.232 16.6905 72.2112 15.0489 73.4385 13.4853C72.7074 11.7655 71.8065 9.92833 70.7359 7.97393H75.6319L76.6895 10.241C77.8123 9.35504 78.9612 8.66448 80.1363 8.16937C81.3113 7.67425 82.4733 7.4267 83.6223 7.4267C85.7896 7.4267 87.5391 7.99999 88.8708 9.14657C90.2026 10.2671 91.1818 12.1433 91.8085 14.7752C92.4613 17.3811 92.7877 20.9251 92.7877 25.4072C92.7877 26.6059 92.7746 27.5309 92.7485 28.1824H88.0091C88.0352 23.9088 87.9177 20.5993 87.6566 18.2541C87.4216 15.9088 86.9516 14.1759 86.2466 13.0554C85.5415 11.9348 84.497 11.3746 83.1131 11.3746C81.5464 11.3746 79.8752 12.1694 78.0995 13.7589C79.5096 17.4072 80.2146 20.3388 80.2146 22.5537C80.2146 24.5081 79.7054 26.0326 78.6871 27.127C77.6687 28.1954 76.2586 28.7296 74.4569 28.7296ZM73.556 22.8274C73.556 23.557 73.6474 24.0651 73.8302 24.3518C74.013 24.6384 74.3394 24.7818 74.8094 24.7818C75.2272 24.7818 75.5405 24.6124 75.7494 24.2736C75.9583 23.9088 76.0628 23.3094 76.0628 22.4756C76.0628 21.329 75.7364 19.7133 75.0836 17.6287C74.0652 19.4528 73.556 21.1857 73.556 22.8274Z" fill="#66A6F2"/>
<path d="M56.931 28.7296C54.4242 28.7296 52.2569 28.2866 50.4291 27.4007C48.6273 26.4886 47.2434 25.2248 46.2772 23.6091C45.3111 21.9935 44.828 20.1433 44.828 18.0586C44.828 15.9739 45.285 14.1238 46.1989 12.5081C47.1389 10.8925 48.4576 9.64168 50.1549 8.75569C51.8783 7.86969 53.8498 7.4267 56.0693 7.4267C59.49 7.4267 62.1404 8.4039 64.0205 10.3583C65.9006 12.3127 66.8406 14.9967 66.8406 18.4104L50.1157 20.7166C51.0297 23.3746 53.4059 24.7036 57.2444 24.7036C59.7772 24.7036 62.4799 24.1824 65.3522 23.1401V27.2052C64.0205 27.7264 62.6888 28.1042 61.357 28.3388C60.0514 28.5993 58.5761 28.7296 56.931 28.7296ZM62.0621 15.6352C61.8793 14.3844 61.3048 13.3811 60.3387 12.6254C59.3725 11.8436 58.0016 11.4528 56.226 11.4528C54.1631 11.4528 52.5833 11.9609 51.4866 12.9772C50.3899 13.9935 49.7893 15.4528 49.6849 17.355L62.0621 15.6352Z" fill="#66A6F2"/>
<path d="M31.6085 29.1271C29.0234 29.1271 26.7908 27.2769 24.9108 23.5766C23.0307 19.8763 21.6467 14.8079 20.7589 8.37139H25.6158C26.0336 11.7069 26.5819 14.6515 27.2609 17.2053C27.9659 19.759 28.697 21.7264 29.4543 23.1076C30.2376 24.4887 30.9557 25.1792 31.6085 25.1792C32.0263 25.1792 32.5486 24.8274 33.1753 24.1238C33.8281 23.4203 34.4939 22.4952 35.1729 21.3486C32.875 19.0554 31.726 16.5017 31.726 13.6874C31.726 11.8372 32.2091 10.404 33.1753 9.38768C34.1414 8.34533 35.4731 7.82416 37.1704 7.82416C38.7633 7.82416 40.0167 8.31927 40.9306 9.3095C41.8706 10.2997 42.3407 11.6027 42.3407 13.2183C42.3407 15.0685 41.6356 17.4007 40.2256 20.215C41.2178 20.7883 42.3145 21.2965 43.5157 21.7395L41.7923 25.6092C40.5128 25.062 39.2986 24.4365 38.1496 23.733C37.0268 25.3486 35.8779 26.6515 34.7028 27.6418C33.5539 28.632 32.5225 29.1271 31.6085 29.1271ZM35.8779 13.531C35.8779 14.9382 36.2957 16.2411 37.1313 17.4398C37.8363 15.6418 38.1888 14.2606 38.1888 13.2965C38.1888 12.2802 37.8232 11.772 37.0921 11.772C36.2826 11.772 35.8779 12.3584 35.8779 13.531Z" fill="#66A6F2"/>
<path d="M0 0.820862H19.2316V5.04236H5.01355V12.5082H18.2133V16.4951H5.01355V23.9609H19.2316V28.1824H0V0.820862Z" fill="#66A6F2"/>
</svg>
