<svg width="750" height="487" viewBox="0 0 750 487" fill="none" xmlns="http://www.w3.org/2000/svg">
<path d="M673.801 219.521C658.71 204.411 640.679 189.851 616.035 182.721C597.215 177.281 575.823 176.601 555.016 178.031C480.321 183.181 412.743 213.791 339.816 227.891C280.39 239.381 217.139 239.951 160.597 257.701C94.9786 278.301 44.5196 322.331 31.0748 370.721C19.7528 411.462 34.9939 454.201 70.552 485.701H729.826C768.773 395.041 748.728 294.501 673.801 219.521Z" fill="#66A6F2" fill-opacity="0.6"/>
<path d="M317.74 150.631C338.68 129.141 335 93.9515 310.82 76.1715C284.14 56.5415 249.23 47.8015 216.68 54.4715C194.65 58.9815 171.88 72.6615 167.34 94.6815C163.87 111.501 172.32 129.141 185.24 140.451C198.16 151.761 214.91 157.681 231.61 161.691C256.67 167.721 284.16 169.751 307.31 158.401C311.17 156.511 314.64 153.821 317.74 150.631Z" fill="#66A6F2" fill-opacity="0.6"/>
<path d="M64.6801 215.981C47.9601 205.991 44.4101 183.301 56.6101 168.121C70.0701 151.361 90.5201 140.061 112.04 138.821C126.61 137.981 143.17 142.761 149.69 155.821C154.67 165.791 152.31 178.271 146.09 187.511C139.87 196.761 130.35 203.261 120.54 208.561C105.82 216.521 88.9201 222.371 72.5101 219.111C69.7801 218.581 67.1601 217.461 64.6801 215.981Z" fill="#66A6F2" fill-opacity="0.6"/>
<path d="M38 441.491L37.76 440.011L40.65 439.551C16.06 387.361 24.48 327.411 63.28 279.001C84.96 251.951 113.95 231.222 147.14 219.052C182.69 206.012 221.35 203.711 258.93 212.401L258.59 213.861C221.29 205.241 182.93 207.511 147.65 220.451C114.72 232.531 85.95 253.091 64.45 279.931C25.8 328.161 17.57 387.931 42.44 439.801L42.87 440.712L38 441.491Z" fill="#66A6F2" fill-opacity="0.6"/>
<path d="M131.5 456.811C128.92 443.121 122.37 430.811 114.39 420.821C110.95 416.521 107.15 412.521 102.73 410.191C100.36 408.941 97.7802 408.141 95.8202 405.991C92.2202 402.061 92.0302 395.331 91.1702 389.481C90.1702 382.671 87.7302 375.911 83.5502 371.311C80.8902 368.391 76.8002 364.941 73.1902 366.061C63.3302 369.121 65.3102 388.081 66.6202 397.781C68.3602 410.681 70.5602 428.621 81.5402 433.881C82.7202 434.441 83.9602 434.921 84.9102 435.991C85.9302 437.141 86.4702 438.821 86.7702 440.491C88.1002 448.001 85.4402 456.961 89.6002 462.681C91.7102 465.591 95.0002 466.581 97.2902 469.271C100.91 473.531 101.04 480.651 103.55 486.041L131.76 486.131C133.92 477.831 133.15 465.601 131.5 456.811Z" fill="#BEE972"/>
<path d="M105.02 458.101C96.0401 456.821 86.3501 459.351 78.1301 455.521C72.2401 452.771 68.1901 447.211 62.8601 443.491C57.5501 439.781 50.9301 437.971 44.4701 438.481C42.1101 438.661 39.6601 439.201 37.8801 440.751C34.7701 443.451 34.6501 448.211 35.2501 452.291C35.5901 454.641 36.1201 457.031 37.4401 458.991C41.2101 464.561 49.6601 464.601 54.5301 469.261C58.8601 473.401 59.2801 480.001 61.1401 485.721H131.84C131.3 481.081 129.77 476.551 127.29 472.591C122.44 464.841 114.07 459.391 105.02 458.101Z" fill="white"/>
<path d="M132.96 486.711H60.4101L60.1901 486.021C59.6801 484.451 59.2701 482.811 58.8801 481.221C57.8101 476.891 56.8001 472.801 53.8401 469.971C51.8001 468.011 48.9401 466.881 46.1801 465.781C42.5801 464.351 38.8701 462.871 36.6201 459.551C35.1401 457.361 34.6001 454.721 34.2601 452.431C33.4101 446.621 34.4101 442.441 37.2301 439.991C38.8901 438.551 41.2401 437.731 44.4001 437.481C51.1401 436.951 57.9001 438.791 63.4401 442.671C65.6301 444.201 67.6101 446.041 69.5301 447.821C72.4301 450.511 75.1701 453.041 78.5601 454.621C83.4901 456.921 88.9501 456.831 94.7301 456.741C98.1701 456.691 101.73 456.631 105.18 457.121C114.54 458.461 123.13 464.041 128.15 472.061C130.66 476.071 132.28 480.751 132.84 485.601L132.96 486.711ZM61.8701 484.711H130.69C130.06 480.551 128.6 476.561 126.44 473.111C121.73 465.591 113.67 460.351 104.88 459.091C101.59 458.621 98.1101 458.671 94.7501 458.731C89.0001 458.821 83.0601 458.921 77.7101 456.431C74.0301 454.721 71.0501 451.951 68.1601 449.281C66.2901 447.551 64.3601 445.761 62.2801 444.311C57.2001 440.751 50.7301 439.001 44.5501 439.481C41.7901 439.701 39.8801 440.341 38.5301 441.511C36.2601 443.481 35.4901 447.051 36.2301 452.141C36.5301 454.211 37.0101 456.571 38.2601 458.431C40.1601 461.241 43.4401 462.551 46.9001 463.931C49.8401 465.101 52.8801 466.311 55.2001 468.541C58.5801 471.771 59.7001 476.341 60.8001 480.751C61.1401 482.051 61.4701 483.411 61.8701 484.711Z" fill="#4A43EC"/>
<path d="M98.09 485.461C98.09 485.461 92.76 473.131 78.09 469.791C63.42 466.461 49.76 449.791 49.76 449.791" fill="white"/>
<path d="M97.18 485.861C97.13 485.741 91.85 473.951 77.88 470.771C63.05 467.401 49.56 451.121 48.99 450.431L50.54 449.161C50.67 449.321 64.16 465.601 78.32 468.821C93.31 472.231 98.79 484.541 99.02 485.071L97.18 485.861Z" fill="#4A43EC"/>
<path d="M702.128 485.331C702.368 485.421 703.488 476.471 703.528 475.961C704.818 459.871 700.108 444.781 689.348 435.661C686.668 433.391 674.738 423.801 672.518 430.431C668.618 442.051 685.808 479.131 702.128 485.331Z" fill="#BEE972"/>
<path d="M701.668 485.101C693.798 480.881 697.918 462.341 699.658 456.371C703.458 443.401 711.778 431.881 723.368 424.831C727.678 422.211 743.658 411.891 747.148 420.021C751.808 430.901 741.608 447.171 736.038 455.801C731.508 462.821 726.208 469.431 720.078 475.131C716.228 478.721 710.448 486.451 704.538 485.921C703.438 485.831 702.488 485.541 701.668 485.101Z" fill="white"/>
<path d="M705.128 486.951C704.898 486.951 704.678 486.941 704.448 486.921C703.248 486.811 702.158 486.501 701.198 485.981C691.748 480.911 697.968 458.621 698.708 456.091C702.718 442.411 711.288 431.011 722.858 423.981L723.548 423.561C728.008 420.821 738.468 414.401 744.468 416.311C746.138 416.841 747.358 417.961 748.068 419.631C753.068 431.291 742.128 448.211 736.878 456.341C732.028 463.851 726.598 470.421 720.758 475.861C719.998 476.571 719.138 477.471 718.228 478.411C714.568 482.241 710.058 486.951 705.128 486.951ZM702.138 484.221C702.858 484.611 703.698 484.841 704.628 484.931C708.848 485.301 713.258 480.721 716.788 477.041C717.718 476.071 718.598 475.151 719.398 474.401C725.118 469.081 730.438 462.641 735.198 455.261C739.868 448.031 750.808 431.101 746.228 420.421C745.748 419.291 744.968 418.571 743.858 418.221C738.718 416.591 728.458 422.891 724.588 425.261L723.888 425.691C712.748 432.461 704.478 443.461 700.618 456.651C698.278 464.651 695.588 480.701 702.138 484.221Z" fill="#4A43EC"/>
<path d="M702.127 485.331C702.127 485.331 709.957 444.791 734.627 429.461L702.127 485.331Z" fill="white"/>
<path d="M703.107 485.521L701.147 485.141C701.167 485.041 703.187 474.771 708.207 462.761C712.867 451.631 721.137 436.671 734.097 428.611L735.157 430.311C711.137 445.241 703.187 485.121 703.107 485.521Z" fill="#4A43EC"/>
<path d="M713.628 453.461C713.628 453.461 722.958 448.791 733.628 446.461L713.628 453.461Z" fill="white"/>
<path d="M714.068 454.361L713.178 452.571C713.268 452.521 722.748 447.821 733.408 445.491L733.838 447.441C723.418 449.721 714.168 454.311 714.068 454.361Z" fill="#4A43EC"/>
<path d="M387.2 485.711C468.06 485.711 533.61 421.366 533.61 341.991C533.61 262.617 468.06 198.271 387.2 198.271C306.34 198.271 240.79 262.617 240.79 341.991C240.79 421.366 306.34 485.711 387.2 485.711Z" fill="#BEE972"/>
<path d="M387.2 486.711C305.92 486.711 239.79 421.791 239.79 341.991C239.79 262.191 305.92 197.271 387.2 197.271C468.48 197.271 534.61 262.191 534.61 341.991C534.61 421.791 468.48 486.711 387.2 486.711ZM387.2 199.271C307.02 199.271 241.79 263.291 241.79 341.991C241.79 420.691 307.02 484.711 387.2 484.711C467.38 484.711 532.61 420.691 532.61 341.991C532.61 263.291 467.38 199.271 387.2 199.271Z" fill="#4A43EC"/>
<path d="M362.41 485.711C443.27 485.711 508.82 420.161 508.82 339.301C508.82 258.441 443.27 192.891 362.41 192.891C281.55 192.891 216 258.441 216 339.301C216 420.161 281.55 485.711 362.41 485.711Z" fill="white"/>
<path d="M362.41 486.711C281.13 486.711 215 420.581 215 339.301C215 258.021 281.13 191.891 362.41 191.891C443.69 191.891 509.82 258.021 509.82 339.301C509.82 420.581 443.69 486.711 362.41 486.711ZM362.41 193.881C282.23 193.881 217 259.111 217 339.291C217 419.471 282.23 484.701 362.41 484.701C442.59 484.701 507.82 419.471 507.82 339.291C507.82 259.121 442.59 193.881 362.41 193.881Z" fill="#4A43EC"/>
<path d="M355.4 404.761C349.56 413.201 337.19 413.521 330.93 405.381L286.9 348.141C282.86 342.891 283.84 335.351 289.1 331.311C294.35 327.271 301.89 328.251 305.93 333.511L342.57 381.141L418.55 271.331C422.32 265.881 429.8 264.521 435.25 268.291C440.7 272.061 442.06 279.541 438.29 284.991L355.4 404.761Z" fill="#BEE972"/>
<path d="M512.919 56.6832C523.082 45.7045 522.421 28.5656 511.442 18.4023C500.464 8.23901 483.325 8.90004 473.161 19.8787C462.998 30.8574 463.659 47.9963 474.638 58.1596C485.617 68.3228 502.756 67.6619 512.919 56.6832Z" fill="#66A6F2" fill-opacity="0.6"/>
<path d="M489.02 49.8614C487.61 51.1414 485.37 50.6714 484.58 48.9414L479.05 36.7714C478.54 35.6514 479.04 34.3414 480.15 33.8314C481.27 33.3214 482.58 33.8214 483.09 34.9314L487.69 45.0614L506 28.4714C506.91 27.6514 508.31 27.7214 509.14 28.6214C509.96 29.5314 509.89 30.9314 508.99 31.7614L489.02 49.8614Z" fill="white"/>
<path d="M644.974 262.571C644.018 262.739 643.32 263.57 643.32 264.541V274.932C643.32 276.592 645.227 277.53 646.542 276.515L663.969 263.066C665.623 261.79 664.459 259.152 662.401 259.513L644.974 262.571Z" fill="#4A43EC"/>
<path d="M645.315 262.852H700.205C701.31 262.852 702.205 261.956 702.205 260.852V232.342C702.205 231.237 701.31 230.342 700.205 230.342H645.315C644.21 230.342 643.315 231.237 643.315 232.342V260.852C643.315 261.956 644.21 262.852 645.315 262.852Z" fill="#4A43EC"/>
<path d="M691.77 241.061H652.27C651.718 241.061 651.27 241.509 651.27 242.061C651.27 242.614 651.718 243.061 652.27 243.061H691.77C692.322 243.061 692.77 242.614 692.77 242.061C692.77 241.509 692.322 241.061 691.77 241.061Z" fill="white"/>
<path d="M691.77 250.141H652.27C651.718 250.141 651.27 250.589 651.27 251.141C651.27 251.694 651.718 252.141 652.27 252.141H691.77C692.322 252.141 692.77 251.694 692.77 251.141C692.77 250.589 692.322 250.141 691.77 250.141Z" fill="white"/>
<path d="M153.506 68.861C154.462 69.0289 155.16 69.8597 155.16 70.8309V83.7704C155.16 85.4314 153.253 86.3685 151.938 85.3534L130.247 68.6061C128.594 67.3296 129.758 64.692 131.815 65.0532L153.506 68.861Z" fill="#4A43EC"/>
<path d="M153.17 31.5214H89C87.8954 31.5214 87 32.4168 87 33.5214V67.1514C87 68.2559 87.8954 69.1514 89 69.1514H153.17C154.275 69.1514 155.17 68.2559 155.17 67.1514V33.5214C155.17 32.4168 154.275 31.5214 153.17 31.5214Z" fill="#4A43EC"/>
<path d="M144.95 44.0813H98.9199C98.3676 44.0813 97.9199 44.529 97.9199 45.0813C97.9199 45.6336 98.3676 46.0813 98.9199 46.0813H144.95C145.502 46.0813 145.95 45.6336 145.95 45.0813C145.95 44.529 145.502 44.0813 144.95 44.0813Z" fill="white"/>
<path d="M144.95 54.5913H98.9199C98.3676 54.5913 97.9199 55.039 97.9199 55.5913C97.9199 56.1436 98.3676 56.5913 98.9199 56.5913H144.95C145.502 56.5913 145.95 56.1436 145.95 55.5913C145.95 55.039 145.502 54.5913 144.95 54.5913Z" fill="white"/>
<path d="M744.656 484H0.655518V487H744.656V484Z" fill="#4A43EC"/>
</svg>
